General
Unique ID                                : 204593847291048572910485729104857201948 (0x99DF820F8D28E73AB81D92C83B41065C)
Complete name                            : X-Men.2000.1080p.BluRay.REMUX.AVC.DTS-HD.MA.5.1-FGT.mkv
Format                                   : Matroska
Format version                           : Version 2
File size                                : 25.4 GiB
Duration                                 : 1 h 44 min
Overall bit rate mode                    : Variable
Overall bit rate                         : 34.8 Mb/s
Movie name                               : X-Men
Encoded date                             : UTC 2009-04-21 18:24:11
Writing application                      : mkvmerge v2.6.0 ('Over The Rainbow') built on Mar 24 2009 14:21:03
Writing library                          : libebml v0.7.7 + libmatroska v0.8.1

Video
ID                                       : 1
Format                                   : AVC
Format/Info                              : Advanced Video Codec
Format profile                           : High@L4.1
Format settings                          : CABAC / 4 Ref Frames
Format settings, CABAC                   : Yes
Format settings, Reference frames        : 4 frames
Codec ID                                 : V_MPEG4/ISO/AVC
Duration                                 : 1 h 44 min
Bit rate mode                            : Variable
Bit rate                                 : 28.5 Mb/s
Maximum bit rate                         : 38.0 Mb/s
Width                                    : 1 920 pixels
Height                                   : 1 080 pixels
Display aspect ratio                     : 16:9
Frame rate mode                          : Constant
Frame rate                               : 23.976 (24000/1001) FPS
Color space                              : YUV
Chroma subsampling                       : 4:2:0
Bit depth                                : 8 bits
Scan type                                : Progressive
Bits/(Pixel*Frame)                       : 0.573
Stream size                              : 20.8 GiB (82%)
Language                                 : English
Default                                  : Yes
Forced                                   : No

Audio #1
ID                                       : 2
Format                                   : DTS LBR / DTS
Format/Info                              : Digital Theater Systems
Commercial name                          : DTS-HD Master Audio
Codec ID                                 : A_DTS
Duration                                 : 1 h 44 min
Bit rate mode                            : Variable / Constant
Bit rate                                 : 4 112 kb/s / 1 509 kb/s
Channel(s)                               : 6 channels
Channel layout                           : C L R Ls Rs LFE
Sampling rate                            : 48.0 kHz
Frame rate                               : 93.750 FPS (512 SPF)
Bit depth                                : 24 bits
Compression mode                         : Lossless / Lossy
Stream size                              : 3.00 GiB (12%)
Title                                    : DTS-HD MA 5.1
Language                                 : English
Default                                  : Yes
Forced                                   : No

Audio #2
ID                                       : 3
Format                                   : AC-3
Format/Info                              : Audio Coding 3
Commercial name                          : Dolby Digital
Codec ID                                 : A_AC3
Duration                                 : 1 h 44 min
Bit rate mode                            : Constant
Bit rate                                 : 448 kb/s
Channel(s)                               : 6 channels
Channel layout                           : L C R Ls Rs LFE
Sampling rate                            : 48.0 kHz
Frame rate                               : 31.250 FPS (1536 SPF)
Bit depth                                : 16 bits
Compression mode                         : Lossy
Stream size                              : 334 MiB (1%)
Title                                    : Dolby Digital 5.1
Language                                 : French
Default                                  : No
Forced                                   : No

Audio #3
ID                                       : 4
Format                                   : AC-3
Format/Info                              : Audio Coding 3
Commercial name                          : Dolby Digital
Codec ID                                 : A_AC3
Duration                                 : 1 h 44 min
Bit rate mode                            : Constant
Bit rate                                 : 448 kb/s
Channel(s)                               : 6 channels
Channel layout                           : L C R Ls Rs LFE
Sampling rate                            : 48.0 kHz
Frame rate                               : 31.250 FPS (1536 SPF)
Bit depth                                : 16 bits
Compression mode                         : Lossy
Stream size                              : 334 MiB (1%)
Title                                    : Dolby Digital 5.1
Language                                 : Spanish
Default                                  : No
Forced                                   : No

Audio #4
ID                                       : 5
Format                                   : AC-3
Format/Info                              : Audio Coding 3
Commercial name                          : Dolby Digital
Codec ID                                 : A_AC3
Duration                                 : 1 h 44 min
Bit rate mode                            : Constant
Bit rate                                 : 448 kb/s
Channel(s)                               : 6 channels
Channel layout                           : L C R Ls Rs LFE
Sampling rate                            : 48.0 kHz
Frame rate                               : 31.250 FPS (1536 SPF)
Bit depth                                : 16 bits
Compression mode                         : Lossy
Stream size                              : 334 MiB (1%)
Title                                    : Dolby Digital 5.1
Language                                 : Portuguese
Default                                  : No
Forced                                   : No

Text #1
ID                                       : 6
Format                                   : PGS
Codec ID                                 : S_HDMV/PGS
Codec ID/Info                            : Picture based subtitle format used on BDs
Duration                                 : 1 h 43 min
Bit rate                                 : 31.2 kb/s
Frame rate                               : 0.312 FPS
Element count                            : 1948
Stream size                              : 23.1 MiB (0%)
Language                                 : English (SDH)
Default                                  : Yes
Forced                                   : No

Text #2
ID                                       : 7
Format                                   : PGS
Codec ID                                 : S_HDMV/PGS
Codec ID/Info                            : Picture based subtitle format used on BDs
Duration                                 : 1 h 42 min
Bit rate                                 : 24.5 kb/s
Frame rate                               : 0.285 FPS
Element count                            : 1752
Stream size                              : 18.0 MiB (0%)
Language                                 : Spanish
Default                                  : No
Forced                                   : No

Text #3
ID                                       : 8
Format                                   : PGS
Codec ID                                 : S_HDMV/PGS
Codec ID/Info                            : Picture based subtitle format used on BDs
Duration                                 : 1 h 42 min
Bit rate                                 : 23.8 kb/s
Frame rate                               : 0.279 FPS
Element count                            : 1718
Stream size                              : 17.5 MiB (0%)
Language                                 : Portuguese
Default                                  : No
Forced                                   : No

Text #4
ID                                       : 9
Format                                   : PGS
Codec ID                                 : S_HDMV/PGS
Codec ID/Info                            : Picture based subtitle format used on BDs
Duration                                 : 1 h 41 min
Bit rate                                 : 19.4 kb/s
Frame rate                               : 0.245 FPS
Element count                            : 1512
Stream size                              : 14.1 MiB (0%)
Language                                 : Cantonese
Default                                  : No
Forced                                   : No

Text #5
ID                                       : 10
Format                                   : PGS
Codec ID                                 : S_HDMV/PGS
Codec ID/Info                            : Picture based subtitle format used on BDs
Duration                                 : 1 h 41 min
Bit rate                                 : 18.2 kb/s
Frame rate                               : 0.231 FPS
Element count                            : 1426
Stream size                              : 13.1 MiB (0%)
Language                                 : Korean
Default                                  : No
Forced                                   : No

Text #6
ID                                       : 11
Format                                   : PGS
Codec ID                                 : S_HDMV/PGS
Codec ID/Info                            : Picture based subtitle format used on BDs
Duration                                 : 1 h 41 min
Bit rate                                 : 18.5 kb/s
Frame rate                               : 0.235 FPS
Element count                            : 1450
Stream size                              : 13.4 MiB (0%)
Language                                 : Mandarin (Traditional)
Default                                  : No
Forced                                   : No
